<?xml version="1.0" encoding="UTF-8"?>
<svg version="1.1" xmlns="http://www.w3.org/2000/svg" width="416" height="416">
<path d="M0 0 C1.00967945 -0.00467997 2.01935889 -0.00935994 3.05963469 -0.01418173 C6.43511396 -0.0261257 9.81018681 -0.01667659 13.18566895 -0.00723267 C15.60881283 -0.01129862 18.03195486 -0.01664063 20.45509338 -0.02316284 C26.34872642 -0.03541952 32.24225431 -0.03362937 38.1358844 -0.02492492 C42.9268571 -0.01814267 47.71779768 -0.01723399 52.5087738 -0.02049637 C53.19131854 -0.02095607 53.87386328 -0.02141577 54.57709119 -0.0218894 C55.96377934 -0.0228486 57.35046748 -0.02382124 58.73715562 -0.02480717 C71.73228077 -0.03335653 84.72734238 -0.02353408 97.72245711 -0.00740607 C108.86663897 0.00599671 120.01072706 0.00366849 131.15490723 -0.01016235 C144.10434719 -0.02622621 157.05373149 -0.0325326 170.00318003 -0.02332556 C171.38469346 -0.02236994 172.76620689 -0.02142683 174.14772034 -0.02049637 C174.82740567 -0.02003354 175.50709101 -0.01957072 176.20737287 -0.01909386 C180.99116239 -0.01650639 185.77491653 -0.02086973 190.55870056 -0.02793503 C197.00031419 -0.03723992 203.44179251 -0.03059071 209.88339043 -0.01325226 C212.24768721 -0.00928505 214.61199889 -0.01042544 216.97628975 -0.01704025 C220.20322583 -0.02523627 223.42959423 -0.01495703 226.65649414 0 C227.59239364 -0.00669217 228.52829314 -0.01338433 229.49255323 -0.02027929 C236.0631812 0.03880402 240.72935488 1.11959717 246.14074707 5.06845093 C248.45311063 8.23724544 249.64620516 11.44604499 249.82824707 15.38095093 C247.15261699 26.19793669 236.80169182 34.68307408 229.32165527 42.54647827 C225.60723143 46.45210376 222.00358938 50.42826989 218.47131348 54.49935913 C216.13756572 57.17189909 213.73605239 59.77485576 211.32824707 62.38095093 C208.30819835 65.65876502 205.3062057 68.94678361 202.39074707 72.31845093 C198.76680063 76.50127104 194.99568961 80.543669 191.23303223 84.60116577 C187.98209195 88.11307837 184.79840394 91.6709651 181.66809082 95.29110718 C179.26154551 98.02465652 176.79521511 100.70209099 174.32824707 103.38095093 C171.2893453 106.68121969 168.26668607 109.99044439 165.32824707 113.38095093 C161.92147357 117.31184342 158.39821922 121.13291665 154.87512207 124.95907593 C152.32269564 127.7358915 149.79841419 130.5307581 147.32824707 133.38095093 C143.92493451 137.30785003 140.40788259 141.12766092 136.88391113 144.94589233 C134.22277745 147.83567415 131.62330506 150.76378816 129.07824707 153.75595093 C128.00276178 154.97127473 126.91976924 156.18000967 125.82824707 157.38095093 C125.02193848 158.28200562 125.02193848 158.28200562 124.19934082 159.20126343 C120.98199138 162.41114802 118.4738261 163.83605486 113.89074707 164.19345093 C107.71063 163.73017379 104.89998424 160.78688428 100.82824707 156.38095093 C99.70806645 155.20560081 98.58688509 154.03120405 97.46496582 152.85751343 C92.04978022 147.15115774 86.72954228 141.36372181 81.59777832 135.40048218 C79.21940287 132.686089 76.77315802 130.03522706 74.32824707 127.38095093 C70.72804252 123.47120738 67.18406925 119.52228421 63.70324707 115.50595093 C61.28274632 112.76271674 58.80624065 110.07210524 56.32824707 107.38095093 C52.72811951 103.47113497 49.18407102 99.52228625 45.70324707 95.50595093 C42.80905371 92.22586512 39.83605815 89.01827036 36.8729248 85.80062866 C34.34084591 83.04621665 31.83789439 80.27352594 29.39074707 77.44345093 C25.81022395 73.31339908 22.09244945 69.31491023 18.37805176 65.30575562 C13.81226775 60.37448046 9.31175612 55.3871277 4.82824707 50.38095093 C3.32868089 48.71389393 1.82867654 47.04723097 0.32824707 45.38095093 C-0.4116748 44.55723999 -1.15159668 43.73352905 -1.91394043 42.88485718 C-3.43368283 41.19946811 -4.95986471 39.51986583 -6.49206543 37.84579468 C-21.58048283 21.29968272 -21.58048283 21.29968272 -21.44519043 11.92391968 C-21.03492895 8.10848792 -19.79837538 6.14227196 -17.17175293 3.38095093 C-11.37643965 0.2373079 -6.51585282 -0.04659172 0 0 Z " fill="#1B1B1B" transform="translate(94.1717529296875,125.61904907226563)"/>
<path d="M0 0 C1.32 0 2.64 0 4 0 C4.33 1.65 4.66 3.3 5 5 C5.66 5 6.32 5 7 5 C6.67 5.99 6.34 6.98 6 8 C1.3125 4.38671875 1.3125 4.38671875 0 3 C0 2.01 0 1.02 0 0 Z " fill="#2D2D2D" transform="translate(107,182)"/>
<path d="M0 0 C2.31 0.66 4.62 1.32 7 2 C7 2.99 7 3.98 7 5 C6.01 5.33 5.02 5.66 4 6 C2.62437146 4.71034824 1.29233607 3.37310707 0 2 C0 1.34 0 0.68 0 0 Z " fill="#2D2D2D" transform="translate(117,194)"/>
<path d="M0 0 C2.475 0.495 2.475 0.495 5 1 C4.34 2.32 3.68 3.64 3 5 C2.01 5 1.02 5 0 5 C0 3.35 0 1.7 0 0 Z " fill="#333333" transform="translate(221,274)"/>
<path d="M0 0 C3.36720387 1.39332574 4.9859524 2.9789286 7 6 C6.01 6 5.02 6 4 6 C0 1.54285714 0 1.54285714 0 0 Z " fill="#323232" transform="translate(180,264)"/>
</svg>
